<svg width="280" height="44" viewBox="0 0 280 44" fill="none" xmlns="http://www.w3.org/2000/svg">
<g filter="url(#filter0_d_3_7)">
<path d="M4.264 35V1.4H16.6C19.288 1.4 21.496 1.864 23.224 2.792C24.984 3.688 26.296 4.92 27.16 6.488C28.024 8.024 28.456 9.736 28.456 11.624C28.456 13.672 27.912 15.544 26.824 17.24C25.768 18.936 24.104 20.168 21.832 20.936L28.792 35H21.736L15.496 21.752H10.408V35H4.264ZM10.408 17.24H16.216C18.264 17.24 19.768 16.744 20.728 15.752C21.688 14.76 22.168 13.448 22.168 11.816C22.168 10.216 21.688 8.936 20.728 7.976C19.8 7.016 18.28 6.536 16.168 6.536H10.408V17.24ZM44.1411 35.576C41.7411 35.576 39.6131 35.064 37.7571 34.04C35.9011 33.016 34.4451 31.576 33.3891 29.72C32.3331 27.864 31.8051 25.72 31.8051 23.288C31.8051 20.824 32.3171 18.632 33.3411 16.712C34.3971 14.792 35.8371 13.304 37.6611 12.248C39.5171 11.16 41.6931 10.616 44.1891 10.616C46.5251 10.616 48.5891 11.128 50.3811 12.152C52.1731 13.176 53.5651 14.584 54.5571 16.376C55.5811 18.136 56.0931 20.104 56.0931 22.28C56.0931 22.632 56.0771 23 56.0451 23.384C56.0451 23.768 56.0291 24.168 55.9971 24.584H37.9011C38.0291 26.44 38.6691 27.896 39.8211 28.952C41.0051 30.008 42.4291 30.536 44.0931 30.536C45.3411 30.536 46.3811 30.264 47.2131 29.72C48.0771 29.144 48.7171 28.408 49.1331 27.512H55.3731C54.9251 29.016 54.1731 30.392 53.1171 31.64C52.0931 32.856 50.8131 33.816 49.2771 34.52C47.7731 35.224 46.0611 35.576 44.1411 35.576ZM44.1891 15.608C42.6851 15.608 41.3571 16.04 40.2051 16.904C39.0531 17.736 38.3171 19.016 37.9971 20.744H49.8531C49.7571 19.176 49.1811 17.928 48.1251 17C47.0691 16.072 45.7571 15.608 44.1891 15.608ZM61.2606 35V11.192H66.6846L67.1646 15.224C67.9006 13.816 68.9566 12.696 70.3326 11.864C71.7406 11.032 73.3886 10.616 75.2766 10.616C78.2206 10.616 80.5086 11.544 82.1406 13.4C83.7726 15.256 84.5886 17.976 84.5886 21.56V35H78.4446V22.136C78.4446 20.088 78.0286 18.52 77.1966 17.432C76.3646 16.344 75.0686 15.8 73.3086 15.8C71.5806 15.8 70.1566 16.408 69.0366 17.624C67.9486 18.84 67.4046 20.536 67.4046 22.712V35H61.2606ZM98.6718 35.576C96.6238 35.576 94.9438 35.256 93.6318 34.616C92.3198 33.944 91.3438 33.064 90.7038 31.976C90.0638 30.888 89.7438 29.688 89.7438 28.376C89.7438 26.168 90.6078 24.376 92.3358 23C94.0638 21.624 96.6558 20.936 100.112 20.936H106.16V20.36C106.16 18.728 105.696 17.528 104.768 16.76C103.84 15.992 102.688 15.608 101.312 15.608C100.064 15.608 98.9758 15.912 98.0478 16.52C97.1198 17.096 96.5438 17.96 96.3198 19.112H90.3198C90.4798 17.384 91.0558 15.88 92.0478 14.6C93.0718 13.32 94.3838 12.344 95.9838 11.672C97.5838 10.968 99.3758 10.616 101.36 10.616C104.752 10.616 107.424 11.464 109.376 13.16C111.328 14.856 112.304 17.256 112.304 20.36V35H107.072L106.496 31.16C105.792 32.44 104.8 33.496 103.52 34.328C102.272 35.16 100.656 35.576 98.6718 35.576ZM100.064 30.776C101.824 30.776 103.184 30.2 104.144 29.048C105.136 27.896 105.76 26.472 106.016 24.776H100.784C99.1518 24.776 97.9838 25.08 97.2798 25.688C96.5758 26.264 96.2238 26.984 96.2238 27.848C96.2238 28.776 96.5758 29.496 97.2798 30.008C97.9838 30.52 98.9118 30.776 100.064 30.776ZM118.167 35V11.192H123.591L124.071 15.224C124.807 13.816 125.863 12.696 127.239 11.864C128.647 11.032 130.295 10.616 132.183 10.616C135.127 10.616 137.415 11.544 139.047 13.4C140.679 15.256 141.495 17.976 141.495 21.56V35H135.351V22.136C135.351 20.088 134.935 18.52 134.103 17.432C133.271 16.344 131.975 15.8 130.215 15.8C128.487 15.8 127.063 16.408 125.943 17.624C124.855 18.84 124.311 20.536 124.311 22.712V35H118.167ZM156.792 35L169.08 1.4H175.992L188.28 35H181.752L179.064 27.224H165.96L163.224 35H156.792ZM167.64 22.424H177.384L172.488 8.456L167.64 22.424ZM202.304 35.576C200.192 35.576 198.336 35.24 196.736 34.568C195.136 33.864 193.856 32.904 192.896 31.688C191.936 30.472 191.36 29.064 191.168 27.464H197.36C197.552 28.392 198.064 29.192 198.896 29.864C199.76 30.504 200.864 30.824 202.208 30.824C203.552 30.824 204.528 30.552 205.136 30.008C205.776 29.464 206.096 28.84 206.096 28.136C206.096 27.112 205.648 26.424 204.752 26.072C203.856 25.688 202.608 25.32 201.008 24.968C199.984 24.744 198.944 24.472 197.888 24.152C196.832 23.832 195.856 23.432 194.96 22.952C194.096 22.44 193.392 21.8 192.848 21.032C192.304 20.232 192.032 19.256 192.032 18.104C192.032 15.992 192.864 14.216 194.528 12.776C196.224 11.336 198.592 10.616 201.632 10.616C204.448 10.616 206.688 11.272 208.352 12.584C210.048 13.896 211.056 15.704 211.376 18.008H205.568C205.216 16.248 203.888 15.368 201.584 15.368C200.432 15.368 199.536 15.592 198.896 16.04C198.288 16.488 197.984 17.048 197.984 17.72C197.984 18.424 198.448 18.984 199.376 19.4C200.304 19.816 201.536 20.2 203.072 20.552C204.736 20.936 206.256 21.368 207.632 21.848C209.04 22.296 210.16 22.984 210.992 23.912C211.824 24.808 212.24 26.104 212.24 27.8C212.272 29.272 211.888 30.6 211.088 31.784C210.288 32.968 209.136 33.896 207.632 34.568C206.128 35.24 204.352 35.576 202.304 35.576ZM227.523 35.576C225.411 35.576 223.555 35.24 221.955 34.568C220.355 33.864 219.075 32.904 218.115 31.688C217.155 30.472 216.579 29.064 216.387 27.464H222.579C222.771 28.392 223.283 29.192 224.115 29.864C224.979 30.504 226.083 30.824 227.427 30.824C228.771 30.824 229.747 30.552 230.355 30.008C230.995 29.464 231.315 28.84 231.315 28.136C231.315 27.112 230.867 26.424 229.971 26.072C229.075 25.688 227.827 25.32 226.227 24.968C225.203 24.744 224.163 24.472 223.107 24.152C222.051 23.832 221.075 23.432 220.179 22.952C219.315 22.44 218.611 21.8 218.067 21.032C217.523 20.232 217.251 19.256 217.251 18.104C217.251 15.992 218.083 14.216 219.747 12.776C221.443 11.336 223.811 10.616 226.851 10.616C229.667 10.616 231.907 11.272 233.571 12.584C235.267 13.896 236.275 15.704 236.595 18.008H230.787C230.435 16.248 229.107 15.368 226.803 15.368C225.651 15.368 224.755 15.592 224.115 16.04C223.507 16.488 223.203 17.048 223.203 17.72C223.203 18.424 223.667 18.984 224.595 19.4C225.523 19.816 226.755 20.2 228.291 20.552C229.955 20.936 231.475 21.368 232.851 21.848C234.259 22.296 235.379 22.984 236.211 23.912C237.043 24.808 237.459 26.104 237.459 27.8C237.491 29.272 237.107 30.6 236.307 31.784C235.507 32.968 234.355 33.896 232.851 34.568C231.347 35.24 229.571 35.576 227.523 35.576ZM246.213 7.496C245.093 7.496 244.165 7.16 243.429 6.488C242.725 5.816 242.373 4.968 242.373 3.944C242.373 2.92 242.725 2.088 243.429 1.448C244.165 0.775998 245.093 0.439999 246.213 0.439999C247.333 0.439999 248.245 0.775998 248.949 1.448C249.685 2.088 250.053 2.92 250.053 3.944C250.053 4.968 249.685 5.816 248.949 6.488C248.245 7.16 247.333 7.496 246.213 7.496ZM243.141 35V11.192H249.285V35H243.141ZM265.538 35.576C263.426 35.576 261.57 35.24 259.97 34.568C258.37 33.864 257.09 32.904 256.13 31.688C255.17 30.472 254.594 29.064 254.402 27.464H260.594C260.786 28.392 261.298 29.192 262.13 29.864C262.994 30.504 264.098 30.824 265.442 30.824C266.786 30.824 267.762 30.552 268.37 30.008C269.01 29.464 269.33 28.84 269.33 28.136C269.33 27.112 268.882 26.424 267.986 26.072C267.09 25.688 265.842 25.32 264.242 24.968C263.218 24.744 262.178 24.472 261.122 24.152C260.066 23.832 259.09 23.432 258.194 22.952C257.33 22.44 256.626 21.8 256.082 21.032C255.538 20.232 255.266 19.256 255.266 18.104C255.266 15.992 256.098 14.216 257.762 12.776C259.458 11.336 261.826 10.616 264.866 10.616C267.682 10.616 269.922 11.272 271.586 12.584C273.282 13.896 274.29 15.704 274.61 18.008H268.802C268.45 16.248 267.122 15.368 264.818 15.368C263.666 15.368 262.77 15.592 262.13 16.04C261.522 16.488 261.218 17.048 261.218 17.72C261.218 18.424 261.682 18.984 262.61 19.4C263.538 19.816 264.77 20.2 266.306 20.552C267.97 20.936 269.49 21.368 270.866 21.848C272.274 22.296 273.394 22.984 274.226 23.912C275.058 24.808 275.474 26.104 275.474 27.8C275.506 29.272 275.122 30.6 274.322 31.784C273.522 32.968 272.37 33.896 270.866 34.568C269.362 35.24 267.586 35.576 265.538 35.576Z" fill="#464646"/>
</g>
<defs>
<filter id="filter0_d_3_7" x="0.264038" y="0.440002" width="279.258" height="43.136" filterUnits="userSpaceOnUse" color-interpolation-filters="sRGB">
<feFlood flood-opacity="0" result="BackgroundImageFix"/>
<feColorMatrix in="SourceAlpha" type="matrix" values="0 0 0 0 0 0 0 0 0 0 0 0 0 0 0 0 0 0 127 0" result="hardAlpha"/>
<feOffset dy="4"/>
<feGaussianBlur stdDeviation="2"/>
<feComposite in2="hardAlpha" operator="out"/>
<feColorMatrix type="matrix" values="0 0 0 0 0 0 0 0 0 0 0 0 0 0 0 0 0 0 0.25 0"/>
<feBlend mode="normal" in2="BackgroundImageFix" result="effect1_dropShadow_3_7"/>
<feBlend mode="normal" in="SourceGraphic" in2="effect1_dropShadow_3_7" result="shape"/>
</filter>
</defs>
</svg>
